<?xml version="1.0" standalone="no"?><!DOCTYPE svg PUBLIC "-//W3C//DTD SVG 1.1//EN" "http://www.w3.org/Graphics/SVG/1.1/DTD/svg11.dtd"><svg t="1536656688873" class="icon" style="" viewBox="0 0 1024 1024" version="1.1" xmlns="http://www.w3.org/2000/svg" p-id="5554" xmlns:xlink="http://www.w3.org/1999/xlink" width="16" height="16"><defs><style type="text/css"></style></defs><path d="M912.194029 504.797636c-19.010628-12.869427-40.504829-19.055783-61.863562-19.146095 0 0 0 0 0 0 0 0 0 0 0 0-4.515588 0-8.986021 0.270935-13.456454 0.76765-16.707677-2.935133-27.861181-19.326719-27.861181-19.326719l-18.64938-30.164131c0 0-17.023769-25.377607-6.457292-41.814349-0.135468 0.090312-0.316091 0.180624-0.451559 0.270935 2.619041-3.251224 5.147771-6.592759 7.495877-10.114918 48.813511-72.068792 29.938352-170.011906-42.130441-218.825418-72.068792-48.813511-170.011906-29.938352-218.825418 42.130441-39.330776 58.070468-34.67972 132.893769 6.231512 185.319751 0 0-0.045156 0-0.045156-0.045156 11.243815 16.436742-6.412136 41.182167-6.412136 41.182167l-68.501477 107.064603c0 0-12.959739 19.055783-33.460511 17.610795-21.629669-4.470433-43.846364-4.154341-65.06963 0.677338-18.378445-0.045156-32.467081-19.64281-32.467081-19.64281l-49.987564-77.57781c0 0-17.655951-24.926048-7.495877-41.633726-0.135468 0.090312-0.316091 0.180624-0.451559 0.270935 26.416193-49.581162 11.695374-112.076906-35.853773-144.318208-50.890682-34.45394-120.069498-21.132954-154.478282 29.757728-34.45394 50.890682-21.132954 120.069498 29.712572 154.478282 23.390748 15.849716 50.619747 21.539357 76.629537 18.197822 16.030339 2.980288 27.31931 23.390748 27.31931 23.390748l53.464568 82.003087c0 0 11.695374 20.049213 1.354677 37.976099-0.090312 0.135468-0.180624 0.270935-0.270935 0.406403-47.323367 69.90131-29.035234 164.954447 40.866076 212.277815 69.90131 47.323367 164.954447 29.035234 212.277815-40.866076 37.072981-54.728932 33.912069-124.856022-2.799665-175.475768-6.321824-16.301274 4.515588-35.98924 4.515588-35.98924l68.862724-107.606474c0 0 14.901442-26.687128 34.363628-24.745425-0.090312-0.045156-0.180624-0.135468-0.270935-0.180624 21.810292 4.6059 44.207611 4.425277 65.656657-0.180624 18.333289 0.045156 31.067249 24.519645 31.067249 24.519645l21.990916 34.67972c0 0 10.295542 16.707677 5.825109 32.783172-1.76108 3.160912-3.341535 6.412136-4.786524 9.663359-0.045156 0.045156-0.045156 0.090312-0.090312 0.090312 0 0 0.045156 0 0.045156 0-20.952331 48.136173-5.37355 105.89055 39.646867 136.370772 50.890682 34.45394 120.069498 21.132954 154.523438-29.712572C976.405697 608.430392 963.084711 539.251576 912.194029 504.797636zM610.056004 371.452309c-41.182167-27.906337-51.929268-83.854478-24.068087-125.036645 27.906337-41.182167 83.854478-51.929268 125.036645-24.068087 41.182167 27.906337 51.929268 83.854478 24.068087 125.036645C707.231468 388.566389 651.238171 399.313489 610.056004 371.452309zM896.434625 628.479605c-17.430172 25.738854-52.425982 32.467081-78.164837 15.03691-25.738854-17.430172-32.467081-52.425982-15.03691-78.164837 17.430172-25.738854 52.425982-32.467081 78.164837-15.03691C907.13657 567.74494 913.864797 602.740751 896.434625 628.479605z" p-id="5555" fill="#1296db"></path></svg>