<?xml version="1.0" standalone="no"?><!DOCTYPE svg PUBLIC "-//W3C//DTD SVG 1.1//EN" "http://www.w3.org/Graphics/SVG/1.1/DTD/svg11.dtd"><svg t="1536737480989" class="icon" style="" viewBox="0 0 1024 1024" version="1.1" xmlns="http://www.w3.org/2000/svg" p-id="7059" xmlns:xlink="http://www.w3.org/1999/xlink" width="16" height="16"><defs><style type="text/css"></style></defs><path d="M926.797168 248.811786c0 0-245.715261 195.174168-266.438235 220.947158L660.358933 279.253098c0-21.144576-16.665565-38.280862-37.217646-38.280862L101.658308 240.972237c-20.554128 0-37.213553 17.134239-37.213553 38.280862l0 459.783755c0 21.142529 16.661472 38.283931 37.213553 38.283931l521.482979 0c20.554128 0 37.217646-17.141402 37.217646-38.283931L660.358933 550.921451c20.722974 22.334681 266.437212 222.435045 266.437212 222.435045 37.735439 0 31.115672-7.325849 31.115672-46.115294L957.911816 299.332413C957.912839 260.510222 964.534654 248.811786 926.797168 248.811786L926.797168 248.811786z" p-id="7060" fill="#646464"></path></svg>